<svg xmlns="http://www.w3.org/2000/svg" xmlns:xlink="http://www.w3.org/1999/xlink" width="423px" height="110px" viewBox="0 0 423 110" version="1.1"><title>Zolvat-Logo-White-Green</title><defs><polygon id="path-1" points="0 0 66.5196 0 66.5196 74.84 0 74.84"/></defs><g id="Zolvat-Logo-White-Green" stroke="none" stroke-width="1" fill="none" fill-rule="evenodd"><g id="Zolvat-logo-White-Green" transform="translate(1.000000, 1.000000)"><g id="Group-3" transform="translate(0.000000, 32.365100)"><mask id="mask-2" fill="white"><use xlink:href="#path-1"/></mask><g id="Clip-2"/><path d="M52.6396,74.84 L-0.0004,74.713 L-0.0004,63.87 C-0.0004,62.075 0.6276,60.357 1.7676,59.032 L38.3356,16.929 L1.3796,16.784 L1.3796,0 L65.1896,0 L65.1896,10.84 C65.1896,12.638 64.5626,14.351 63.4236,15.665 L26.8476,57.79 L66.5196,57.79 L66.5196,74.84 L52.6396,74.84 Z" id="Fill-1" fill="#F5F5F5" mask="url(#mask-2)"/></g><path d="M108.6299,49.5455 C103.0929,49.5455 98.5469,51.4555 95.1199,55.2225 C91.6899,58.9895 89.9499,63.9675 89.9499,70.0155 C89.9499,76.1265 91.6919,81.1055 95.1259,84.8155 C98.6139,88.5775 103.1569,90.4855 108.6299,90.4855 C114.0409,90.4855 118.5219,88.5755 121.9499,84.8085 C123.6619,82.9595 124.9709,80.7575 125.8349,78.2735 C126.6879,75.8185 127.1199,73.0405 127.1199,70.0155 C127.1199,63.9035 125.3789,58.9245 121.9439,55.2155 C118.5229,51.4555 114.0409,49.5455 108.6299,49.5455 M108.6299,107.9955 C105.7139,107.9955 102.8529,107.7605 99.8799,107.2775 C95.4099,106.4975 91.2659,105.1185 87.5749,103.1805 C81.5289,99.9865 76.7859,95.4405 73.4779,89.6685 C70.1539,83.9375 68.4699,77.2355 68.4699,69.7455 C68.4699,62.1755 70.1539,55.4335 73.4749,49.7065 C76.7809,43.9505 81.5219,39.4495 87.5689,36.3235 C93.5629,33.1655 100.6469,31.5655 108.6299,31.5655 C116.4099,31.5655 123.4519,33.1665 129.5609,36.3235 C135.6079,39.5025 140.3519,44.0055 143.6549,49.7065 C145.2999,52.5345 146.5599,55.6675 147.4009,59.0185 C148.2359,62.3525 148.6599,65.9615 148.6599,69.7455 C148.6599,77.1845 146.9749,83.8875 143.6529,89.6665 C140.3559,95.4385 135.6149,99.9845 129.5629,103.1815 C125.8529,105.1245 121.7319,106.5045 117.3169,107.2805 C114.3479,107.7605 111.5019,107.9955 108.6299,107.9955" id="Fill-4" fill="#F5F5F5"/><path d="M180.8799,108.0655 C178.4639,108.0655 176.2269,107.7815 174.2299,107.2225 C170.4649,106.2015 167.1329,104.2525 164.3179,101.4295 C159.9669,97.0215 157.7599,90.5825 157.7599,82.2955 L157.7599,26.9455 L179.0999,26.9455 L179.0999,80.9155 C179.0999,82.2265 179.2399,83.3905 179.5169,84.3755 C179.8189,85.4105 180.2589,86.2605 180.8259,86.9125 C182.0139,88.2325 183.6269,88.8955 185.6299,88.8955 C187.5249,88.8955 190.0139,88.1645 192.8299,86.7835 L192.8799,86.7585 L195.1009,104.7515 L195.0769,104.7635 C192.6199,105.9195 190.3029,106.7265 188.0199,107.2175 C185.6509,107.7905 183.3229,108.0655 180.8799,108.0655" id="Fill-6" fill="#F5F5F5"/><path d="M324.2397,49.4151 C318.7157,49.4151 314.1917,51.3481 310.7937,55.1601 C307.3377,59.0261 305.5527,64.0211 305.4897,70.0051 C305.5637,76.0951 307.3467,81.0881 310.7907,84.8691 C314.1877,88.6791 318.7157,90.6151 324.2397,90.6151 C329.1557,90.6151 333.3617,88.9341 336.7397,85.6191 C340.0887,82.2711 342.0527,77.8711 342.5847,72.5341 L342.5897,67.5751 C342.0507,62.0821 340.0847,57.6821 336.7397,54.4011 C333.3577,51.0921 329.1517,49.4151 324.2397,49.4151 M319.2897,107.9951 C316.6937,107.9951 314.1547,107.7621 311.5307,107.2811 C307.6147,106.5081 304.0667,105.1701 300.6957,103.1931 C295.4307,100.0411 291.2617,95.4751 288.3127,89.6251 C285.4187,83.7791 283.9497,77.0001 283.9497,69.4851 C283.9497,61.9691 285.3937,55.3041 288.2417,49.6771 C291.0567,44.0371 295.1607,39.5411 300.4417,36.3081 C305.6337,33.1211 311.7297,31.5051 318.5597,31.5051 C327.8337,31.5051 335.3307,34.6431 340.8437,40.8301 L342.5897,42.7911 L342.5897,32.6451 L343.0097,32.6451 L343.0097,32.2951 L364.0697,32.2951 L364.0697,107.2051 L342.7297,107.2051 L342.7297,96.8451 L340.9847,98.7991 C338.6357,101.4271 335.8927,103.5191 332.8307,105.0171 C330.8787,105.9931 328.7207,106.7311 326.2257,107.2791 C323.9287,107.7531 321.5907,107.9951 319.2897,107.9951" id="Fill-8" fill="#F5F5F5"/><path d="M401.4399,108.0655 C398.8429,108.0655 396.5399,107.7885 394.3969,107.2185 C390.3619,106.1615 387.0139,104.2885 384.1599,101.4905 C379.7149,97.1135 377.4599,90.9875 377.4599,83.2855 L377.4599,26.2855 L398.8099,26.2855 L398.8099,42.2655 L419.2199,42.2655 L419.2199,57.2755 L398.8099,57.2755 L398.8099,79.7255 C398.8099,83.0535 399.4909,85.6905 400.7799,87.3495 C402.0599,89.0515 403.8779,89.8855 406.3299,89.8855 C409.2529,89.8855 412.4579,88.9495 415.8569,87.1045 L415.9469,87.0555 L420.5609,102.8945 L420.4969,102.9315 C417.7589,104.4925 414.5839,105.7975 411.3229,106.7015 C410.3999,106.9505 409.7049,107.1125 409.1399,107.2105 C406.5599,107.7885 404.0569,108.0655 401.4399,108.0655" id="Fill-10" fill="#F5F5F5"/><path d="M223.8696,106.941 L265.4166,6.875 C267.1506,2.698 271.1926,0 275.7146,0 L297.7456,0 L253.3446,106.941 L223.8696,106.941 Z" id="Fill-12" fill="#00E084"/><path d="M217.9146,93.1104 C217.8126,93.1104 217.4686,93.0814 217.3146,92.7104 L193.2686,34.8024 L213.9046,34.8024 C218.1386,34.8024 221.9246,37.3294 223.5496,41.2384 L231.7146,60.9124 L218.5146,92.7104 C218.3606,93.0814 218.0166,93.1104 217.9146,93.1104" id="Fill-14" fill="#00E084"/></g></g><script xmlns=""/></svg>